<svg version="1.1" xmlns="http://www.w3.org/2000/svg" xmlns:xlink="http://www.w3.org/1999/xlink" width="20" height="27"><defs/><g><path fill="rgb(0,0,0)" stroke="none" paint-order="stroke fill markers" fill-rule="evenodd" d=" M 15.995445251464844 4.99852728843689 C 15.995445251464844 4.99852728843689 14.496269226074219 4.99852728843689 14.496269226074219 4.99852728843689 C 14.496269226074219 3.3417351245880127 12.483024597167969 1.9981880187988281 9.998741149902344 1.9981880187988281 C 7.514457702636719 1.9981880187988281 5.500984191894531 3.3417351245880127 5.500984191894531 4.99852728843689 C 5.500984191894531 4.99852728843689 4.001808166503906 4.99852728843689 4.001808166503906 4.99852728843689 C 2.3458480834960938 4.99852728843689 1.0033416748046875 6.341243505477905 1.0033416748046875 7.997204780578613 C 1.0033416748046875 7.997204780578613 1.0033416748046875 22.99516212940216 1.0033416748046875 22.99516212940216 C 1.0033416748046875 24.65112340450287 2.3458480834960938 25.99425506591797 4.001808166503906 25.99425506591797 C 4.001808166503906 25.99425506591797 15.995445251464844 25.99425506591797 15.995445251464844 25.99425506591797 C 17.651634216308594 25.99425506591797 18.99425506591797 24.65112340450287 18.99425506591797 22.99516212940216 C 18.99425506591797 22.99516212940216 18.99425506591797 7.997204780578613 18.99425506591797 7.997204780578613 C 18.99425506591797 6.341243505477905 17.651634216308594 4.99852728843689 15.995445251464844 4.99852728843689 Z M 9.998741149902344 3.498357653617859 C 11.655044555664062 3.498357653617859 12.997093200683594 3.962409019470215 12.997093200683594 4.99852728843689 C 12.997093200683594 4.99852728843689 7.000274658203125 4.99852728843689 7.000274658203125 4.99852728843689 C 7.000274658203125 3.962409019470215 8.342666625976562 3.498357653617859 9.998741149902344 3.498357653617859 Z M 17.494964599609375 22.99516212940216 C 17.494964599609375 23.823142766952515 16.82353973388672 24.494085431098938 15.995445251464844 24.494085431098938 C 15.995445251464844 24.494085431098938 4.001808166503906 24.494085431098938 4.001808166503906 24.494085431098938 C 3.1735992431640625 24.494085431098938 2.5024032592773438 23.823142766952515 2.5024032592773438 22.99516212940216 C 2.5024032592773438 22.99516212940216 2.5024032592773438 21.495407938957214 2.5024032592773438 21.495407938957214 C 2.5024032592773438 21.495407938957214 17.494964599609375 21.495407938957214 17.494964599609375 21.495407938957214 C 17.494964599609375 21.495407938957214 17.494964599609375 22.99516212940216 17.494964599609375 22.99516212940216 Z M 17.494964599609375 19.995238304138184 C 17.494964599609375 19.995238304138184 2.5024032592773438 19.995238304138184 2.5024032592773438 19.995238304138184 C 2.5024032592773438 19.995238304138184 2.5024032592773438 7.997204780578613 2.5024032592773438 7.997204780578613 C 2.5024032592773438 7.168808698654175 3.1735992431640625 6.497450590133667 4.001808166503906 6.497450590133667 C 4.001808166503906 6.497450590133667 5.500984191894531 6.497450590133667 5.500984191894531 6.497450590133667 C 5.500984191894531 6.497450590133667 5.500984191894531 10.997544050216675 5.500984191894531 10.997544050216675 C 5.500984191894531 10.997544050216675 7.000274658203125 10.997544050216675 7.000274658203125 10.997544050216675 C 7.000274658203125 10.997544050216675 7.000274658203125 6.497450590133667 7.000274658203125 6.497450590133667 C 7.000274658203125 6.497450590133667 12.997093200683594 6.497450590133667 12.997093200683594 6.497450590133667 C 12.997093200683594 6.497450590133667 12.997093200683594 10.997544050216675 12.997093200683594 10.997544050216675 C 12.997093200683594 10.997544050216675 14.496269226074219 10.997544050216675 14.496269226074219 10.997544050216675 C 14.496269226074219 10.997544050216675 14.496269226074219 6.497450590133667 14.496269226074219 6.497450590133667 C 14.496269226074219 6.497450590133667 15.995445251464844 6.497450590133667 15.995445251464844 6.497450590133667 C 16.823997497558594 6.497450590133667 17.494964599609375 7.168808698654175 17.494964599609375 7.997204780578613 C 17.494964599609375 7.997204780578613 17.494964599609375 19.995238304138184 17.494964599609375 19.995238304138184 Z"/></g></svg>