<svg version="1.1" xmlns="http://www.w3.org/2000/svg" xmlns:xlink="http://www.w3.org/1999/xlink" width="27" height="28"><defs/><g><path fill="rgb(0,0,0)" stroke="none" paint-order="stroke fill markers" fill-rule="evenodd" d=" M 24.762176513671875 24.681450843811035 C 24.762176513671875 24.681450843811035 18.568634033203125 18.586466431617737 18.568634033203125 18.586466431617737 C 20.190147399902344 16.82456684112549 21.186927795410156 14.493508458137512 21.186927795410156 11.928554892539978 C 21.186012268066406 6.4434428215026855 16.66765594482422 1.9977725744247437 11.093353271484375 1.9977725744247437 C 5.5189361572265625 1.9977725744247437 1.000579833984375 6.4434428215026855 1.000579833984375 11.928554892539978 C 1.000579833984375 17.415744185447693 5.5189361572265625 21.862245321273804 11.093353271484375 21.862245321273804 C 13.501533508300781 21.862245321273804 15.710700988769531 21.028033018112183 17.44585418701172 19.64377236366272 C 17.44585418701172 19.64377236366272 23.663429260253906 25.763267993927002 23.663429260253906 25.763267993927002 C 23.966354370117188 26.061557054519653 24.458106994628906 26.061557054519653 24.761375427246094 25.763267993927002 C 25.06464385986328 25.463732600212097 25.06464385986328 24.979324460029602 24.762176513671875 24.681450843811035 Z M 11.093353271484375 20.33382546901703 C 6.376899719238281 20.33382546901703 2.553314208984375 16.571561217308044 2.553314208984375 11.928554892539978 C 2.553314208984375 7.2880412340164185 6.376899719238281 3.524946093559265 11.093353271484375 3.524946093559265 C 15.809806823730469 3.524946093559265 19.63304901123047 7.2880412340164185 19.63304901123047 11.928554892539978 C 19.63304901123047 16.571561217308044 15.809806823730469 20.33382546901703 11.093353271484375 20.33382546901703 Z"/></g></svg>