<svg version="1.1" xmlns="http://www.w3.org/2000/svg" xmlns:xlink="http://www.w3.org/1999/xlink" width="66" height="59"><defs/><g><path fill="rgb(0,0,0)" stroke="none" paint-order="stroke fill markers" fill-rule="evenodd" d=" M 38.10779571533203 12.713294744491577 C 38.10779571533203 12.713294744491577 27.60028839111328 12.713294744491577 27.60028839111328 12.713294744491577 C 27.60028839111328 12.713294744491577 32.854042053222656 21.90458607673645 32.854042053222656 21.90458607673645 C 32.854042053222656 21.90458607673645 38.10779571533203 12.713294744491577 38.10779571533203 12.713294744491577 Z M 26.286277770996094 13.47978961467743 C 26.286277770996094 13.47978961467743 21.03240966796875 22.671080946922302 21.03240966796875 22.671080946922302 C 21.03240966796875 22.671080946922302 31.54003143310547 22.671080946922302 31.54003143310547 22.671080946922302 C 31.54003143310547 22.671080946922302 26.286277770996094 13.47978961467743 26.286277770996094 13.47978961467743 Z M 44.67567443847656 22.671080946922302 C 44.67567443847656 22.671080946922302 39.42169189453125 13.47978961467743 39.42169189453125 13.47978961467743 C 39.42169189453125 13.47978961467743 34.168052673339844 22.671080946922302 34.168052673339844 22.671080946922302 C 34.168052673339844 22.671080946922302 44.67567443847656 22.671080946922302 44.67567443847656 22.671080946922302 Z M 34.168052673339844 24.2015780210495 C 34.168052673339844 24.2015780210495 39.42169189453125 33.3895457983017 39.42169189453125 33.3895457983017 C 39.42169189453125 33.3895457983017 44.67567443847656 24.2015780210495 44.67567443847656 24.2015780210495 C 44.67567443847656 24.2015780210495 34.168052673339844 24.2015780210495 34.168052673339844 24.2015780210495 Z M 21.03240966796875 24.2015780210495 C 21.03240966796875 24.2015780210495 26.286277770996094 33.3895457983017 26.286277770996094 33.3895457983017 C 26.286277770996094 33.3895457983017 31.54003143310547 24.2015780210495 31.54003143310547 24.2015780210495 C 31.54003143310547 24.2015780210495 21.03240966796875 24.2015780210495 21.03240966796875 24.2015780210495 Z M 14.464645385742188 34.15396344661713 C 14.464645385742188 34.15396344661713 24.971351623535156 34.15396344661713 24.971351623535156 34.15396344661713 C 24.971351623535156 34.15396344661713 19.718399047851562 24.966826558113098 19.718399047851562 24.966826558113098 C 19.718399047851562 24.966826558113098 14.464645385742188 34.15396344661713 14.464645385742188 34.15396344661713 Z M 51.243324279785156 34.15396344661713 C 51.243324279785156 34.15396344661713 45.98968505859375 24.966826558113098 45.98968505859375 24.966826558113098 C 45.98968505859375 24.966826558113098 40.737648010253906 34.15396344661713 40.737648010253906 34.15396344661713 C 40.737648010253906 34.15396344661713 51.243324279785156 34.15396344661713 51.243324279785156 34.15396344661713 Z M 32.854042053222656 1.9935835599899292 C 32.854042053222656 1.9935835599899292 27.60028839111328 11.184044003486633 27.60028839111328 11.184044003486633 C 27.60028839111328 11.184044003486633 38.10779571533203 11.184044003486633 38.10779571533203 11.184044003486633 C 38.10779571533203 11.184044003486633 32.854042053222656 1.9935835599899292 32.854042053222656 1.9935835599899292 Z M 45.98968505859375 44.87409007549286 C 45.98968505859375 44.87409007549286 51.243324279785156 35.68612229824066 51.243324279785156 35.68612229824066 C 51.243324279785156 35.68612229824066 40.737648010253906 35.68612229824066 40.737648010253906 35.68612229824066 C 40.737648010253906 35.68612229824066 45.98968505859375 44.87409007549286 45.98968505859375 44.87409007549286 Z M 19.718399047851562 44.87409007549286 C 19.718399047851562 44.87409007549286 24.971351623535156 35.68612229824066 24.971351623535156 35.68612229824066 C 24.971351623535156 35.68612229824066 14.464645385742188 35.68612229824066 14.464645385742188 35.68612229824066 C 14.464645385742188 35.68612229824066 19.718399047851562 44.87409007549286 19.718399047851562 44.87409007549286 Z M 7.896995544433594 45.64141583442688 C 7.896995544433594 45.64141583442688 18.403701782226562 45.64141583442688 18.403701782226562 45.64141583442688 C 18.403701782226562 45.64141583442688 13.150749206542969 36.450955390930176 13.150749206542969 36.450955390930176 C 13.150749206542969 36.450955390930176 7.896995544433594 45.64141583442688 7.896995544433594 45.64141583442688 Z M 57.81108856201172 45.64141583442688 C 57.81108856201172 45.64141583442688 52.557334899902344 36.450955390930176 52.557334899902344 36.450955390930176 C 52.557334899902344 36.450955390930176 47.30335235595703 45.64141583442688 47.30335235595703 45.64141583442688 C 47.30335235595703 45.64141583442688 57.81108856201172 45.64141583442688 57.81108856201172 45.64141583442688 Z M 47.30335235595703 47.17191290855408 C 47.30335235595703 47.17191290855408 52.557334899902344 56.359049797058105 52.557334899902344 56.359049797058105 C 52.557334899902344 56.359049797058105 57.81108856201172 47.17191290855408 57.81108856201172 47.17191290855408 C 57.81108856201172 47.17191290855408 47.30335235595703 47.17191290855408 47.30335235595703 47.17191290855408 Z M 34.168052673339844 47.17191290855408 C 34.168052673339844 47.17191290855408 39.42169189453125 56.359049797058105 39.42169189453125 56.359049797058105 C 39.42169189453125 56.359049797058105 44.67567443847656 47.17191290855408 44.67567443847656 47.17191290855408 C 44.67567443847656 47.17191290855408 34.168052673339844 47.17191290855408 34.168052673339844 47.17191290855408 Z M 13.150749206542969 56.359049797058105 C 13.150749206542969 56.359049797058105 18.403701782226562 47.17191290855408 18.403701782226562 47.17191290855408 C 18.403701782226562 47.17191290855408 7.896995544433594 47.17191290855408 7.896995544433594 47.17191290855408 C 7.896995544433594 47.17191290855408 13.150749206542969 56.359049797058105 13.150749206542969 56.359049797058105 Z M 1.3310623168945312 57.12762188911438 C 1.3310623168945312 57.12762188911438 11.835823059082031 57.12762188911438 11.835823059082031 57.12762188911438 C 11.835823059082031 57.12762188911438 6.582069396972656 47.9392386674881 6.582069396972656 47.9392386674881 C 6.582069396972656 47.9392386674881 1.3310623168945312 57.12762188911438 1.3310623168945312 57.12762188911438 Z M 27.60028839111328 57.12762188911438 C 27.60028839111328 57.12762188911438 38.10779571533203 57.12762188911438 38.10779571533203 57.12762188911438 C 38.10779571533203 57.12762188911438 32.854042053222656 47.9392386674881 32.854042053222656 47.9392386674881 C 32.854042053222656 47.9392386674881 27.60028839111328 57.12762188911438 27.60028839111328 57.12762188911438 Z M 40.737648010253906 57.12762188911438 C 40.737648010253906 57.12762188911438 51.243324279785156 57.12762188911438 51.243324279785156 57.12762188911438 C 51.243324279785156 57.12762188911438 45.98968505859375 47.9392386674881 45.98968505859375 47.9392386674881 C 45.98968505859375 47.9392386674881 40.737648010253906 57.12762188911438 40.737648010253906 57.12762188911438 Z M 59.125099182128906 47.9392386674881 C 59.125099182128906 47.9392386674881 53.87306213378906 57.12762188911438 53.87306213378906 57.12762188911438 C 53.87306213378906 57.12762188911438 64.37702178955078 57.12762188911438 64.37702178955078 57.12762188911438 C 64.37702178955078 57.12762188911438 59.125099182128906 47.9392386674881 59.125099182128906 47.9392386674881 Z"/></g></svg>